<svg id="visual" viewBox="0 0 1920 1080" width="1920" height="1080" xmlns="http://www.w3.org/2000/svg" xmlns:xlink="http://www.w3.org/1999/xlink" version="1.1"><rect width="1920" height="1080" fill="#931F1F"></rect><g><g transform="translate(23 1040)"><path d="M175.6 -59.3C198.9 14.8 169.5 103.8 105.1 152.4C40.7 201.1 -58.7 209.3 -122.6 163.9C-186.6 118.6 -215.2 19.7 -188.9 -58.5C-162.6 -136.8 -81.3 -194.3 -2.6 -193.5C76.1 -192.6 152.2 -133.4 175.6 -59.3Z" fill="none" stroke="#F7760E" stroke-width="20"></path></g><g transform="translate(1693 1007)"><path d="M150 -57.7C167 3.6 134.5 71.9 83.2 107.6C31.9 143.2 -38.2 146.1 -89.4 111.6C-140.5 77.2 -172.8 5.3 -154.7 -57.5C-136.7 -120.2 -68.3 -173.8 -0.9 -173.5C66.5 -173.2 133.1 -119 150 -57.7Z" fill="none" stroke="#F7760E" stroke-width="20"></path></g><g transform="translate(1519 397)"><path d="M101.5 -32.5C115.2 9.3 98.8 61.3 64.6 85.2C30.5 109.1 -21.3 104.8 -55.9 79.1C-90.6 53.4 -108.2 6.3 -96 -33.3C-83.8 -72.9 -41.9 -105 1 -105.3C43.9 -105.7 87.7 -74.2 101.5 -32.5Z" fill="none" stroke="#F7760E" stroke-width="20"></path></g></g></svg>